<mxfile host="app.diagrams.net" agent="Mozilla/5.0 (X11; Linux x86_64; rv:131.0) Gecko/20100101 Firefox/131.0" version="24.8.3">
  <diagram name="Page-1" id="IC5N8RvW68HBiotTKeEB">
    <mxGraphModel dx="1647" dy="991" grid="1" gridSize="10" guides="1" tooltips="1" connect="1" arrows="1" fold="1" page="1" pageScale="1" pageWidth="1100" pageHeight="850" math="0" shadow="0">
      <root>
        <mxCell id="0" />
        <mxCell id="1" parent="0" />
        <mxCell id="0u2wPPO9z2ysjlSLfU8o-7" style="edgeStyle=entityRelationEdgeStyle;rounded=0;orthogonalLoop=1;jettySize=auto;html=1;exitX=1;exitY=0.5;exitDx=0;exitDy=0;shadow=1;" edge="1" parent="1" source="0u2wPPO9z2ysjlSLfU8o-3" target="0u2wPPO9z2ysjlSLfU8o-4">
          <mxGeometry relative="1" as="geometry" />
        </mxCell>
        <mxCell id="0u2wPPO9z2ysjlSLfU8o-3" value="platform.yaml" style="rounded=1;whiteSpace=wrap;html=1;fillColor=#f5f5f5;strokeColor=#666666;arcSize=12;strokeWidth=3;fontStyle=1;fontColor=#333333;shadow=1;" vertex="1" parent="1">
          <mxGeometry x="10" y="460" width="120" height="60" as="geometry" />
        </mxCell>
        <mxCell id="0u2wPPO9z2ysjlSLfU8o-8" style="edgeStyle=entityRelationEdgeStyle;rounded=0;orthogonalLoop=1;jettySize=auto;html=1;exitX=1;exitY=0.5;exitDx=0;exitDy=0;entryX=0;entryY=0.5;entryDx=0;entryDy=0;shadow=1;" edge="1" parent="1" source="0u2wPPO9z2ysjlSLfU8o-4" target="0u2wPPO9z2ysjlSLfU8o-5">
          <mxGeometry relative="1" as="geometry">
            <mxPoint x="440" y="500" as="sourcePoint" />
          </mxGeometry>
        </mxCell>
        <mxCell id="0u2wPPO9z2ysjlSLfU8o-13" style="edgeStyle=entityRelationEdgeStyle;rounded=0;orthogonalLoop=1;jettySize=auto;html=1;exitX=1;exitY=0.5;exitDx=0;exitDy=0;entryX=0;entryY=0.5;entryDx=0;entryDy=0;shadow=1;" edge="1" parent="1" source="0u2wPPO9z2ysjlSLfU8o-4" target="0u2wPPO9z2ysjlSLfU8o-10">
          <mxGeometry relative="1" as="geometry">
            <mxPoint x="440" y="500" as="sourcePoint" />
          </mxGeometry>
        </mxCell>
        <mxCell id="0u2wPPO9z2ysjlSLfU8o-14" style="edgeStyle=entityRelationEdgeStyle;rounded=0;orthogonalLoop=1;jettySize=auto;html=1;entryX=0;entryY=0.5;entryDx=0;entryDy=0;shadow=1;exitX=1;exitY=0.5;exitDx=0;exitDy=0;" edge="1" parent="1" source="0u2wPPO9z2ysjlSLfU8o-4" target="0u2wPPO9z2ysjlSLfU8o-11">
          <mxGeometry relative="1" as="geometry">
            <mxPoint x="440" y="500" as="sourcePoint" />
          </mxGeometry>
        </mxCell>
        <mxCell id="0u2wPPO9z2ysjlSLfU8o-15" style="edgeStyle=entityRelationEdgeStyle;rounded=0;orthogonalLoop=1;jettySize=auto;html=1;exitX=1;exitY=0.5;exitDx=0;exitDy=0;entryX=0;entryY=0.5;entryDx=0;entryDy=0;shadow=1;" edge="1" parent="1" source="0u2wPPO9z2ysjlSLfU8o-4" target="0u2wPPO9z2ysjlSLfU8o-12">
          <mxGeometry relative="1" as="geometry">
            <mxPoint x="440" y="500" as="sourcePoint" />
          </mxGeometry>
        </mxCell>
        <mxCell id="0u2wPPO9z2ysjlSLfU8o-4" value="Blueprint" style="rounded=1;whiteSpace=wrap;html=1;fillColor=#dae8fc;strokeColor=#6c8ebf;arcSize=12;strokeWidth=3;fontStyle=1;shadow=1;" vertex="1" parent="1">
          <mxGeometry x="225" y="460" width="120" height="60" as="geometry" />
        </mxCell>
        <mxCell id="0u2wPPO9z2ysjlSLfU8o-5" value="Builder" style="rounded=1;whiteSpace=wrap;html=1;fillColor=#ffe6cc;strokeColor=#d79b00;arcSize=12;strokeWidth=3;fontStyle=1;shadow=1;" vertex="1" parent="1">
          <mxGeometry x="520" y="240" width="120" height="60" as="geometry" />
        </mxCell>
        <mxCell id="0u2wPPO9z2ysjlSLfU8o-9" style="edgeStyle=entityRelationEdgeStyle;rounded=0;orthogonalLoop=1;jettySize=auto;html=1;exitX=1;exitY=0.5;exitDx=0;exitDy=0;entryX=0.014;entryY=0.692;entryDx=0;entryDy=0;entryPerimeter=0;shadow=1;" edge="1" parent="1" source="0u2wPPO9z2ysjlSLfU8o-5" target="0u2wPPO9z2ysjlSLfU8o-20">
          <mxGeometry relative="1" as="geometry">
            <mxPoint x="849.04" y="158.91000000000008" as="targetPoint" />
          </mxGeometry>
        </mxCell>
        <mxCell id="0u2wPPO9z2ysjlSLfU8o-25" style="edgeStyle=orthogonalEdgeStyle;rounded=0;orthogonalLoop=1;jettySize=auto;html=1;exitX=1;exitY=0.5;exitDx=0;exitDy=0;entryX=0;entryY=0.5;entryDx=0;entryDy=0;shadow=1;" edge="1" parent="1" source="0u2wPPO9z2ysjlSLfU8o-10" target="0u2wPPO9z2ysjlSLfU8o-22">
          <mxGeometry relative="1" as="geometry" />
        </mxCell>
        <mxCell id="0u2wPPO9z2ysjlSLfU8o-10" value="Visualizer" style="rounded=1;whiteSpace=wrap;html=1;fillColor=#ffe6cc;strokeColor=#d79b00;arcSize=12;strokeWidth=3;fontStyle=1;shadow=1;" vertex="1" parent="1">
          <mxGeometry x="520" y="390" width="120" height="60" as="geometry" />
        </mxCell>
        <mxCell id="0u2wPPO9z2ysjlSLfU8o-26" style="edgeStyle=entityRelationEdgeStyle;rounded=0;orthogonalLoop=1;jettySize=auto;html=1;exitX=1;exitY=0.5;exitDx=0;exitDy=0;shadow=1;" edge="1" parent="1" source="0u2wPPO9z2ysjlSLfU8o-11" target="0u2wPPO9z2ysjlSLfU8o-24">
          <mxGeometry relative="1" as="geometry" />
        </mxCell>
        <mxCell id="0u2wPPO9z2ysjlSLfU8o-11" value="Forecaster" style="rounded=1;whiteSpace=wrap;html=1;fillColor=#ffe6cc;strokeColor=#d79b00;arcSize=12;strokeWidth=3;fontStyle=1;shadow=1;" vertex="1" parent="1">
          <mxGeometry x="520" y="555" width="120" height="60" as="geometry" />
        </mxCell>
        <mxCell id="0u2wPPO9z2ysjlSLfU8o-27" style="edgeStyle=entityRelationEdgeStyle;rounded=0;orthogonalLoop=1;jettySize=auto;html=1;exitX=1;exitY=0.5;exitDx=0;exitDy=0;shadow=1;" edge="1" parent="1" source="0u2wPPO9z2ysjlSLfU8o-12" target="0u2wPPO9z2ysjlSLfU8o-23">
          <mxGeometry relative="1" as="geometry" />
        </mxCell>
        <mxCell id="0u2wPPO9z2ysjlSLfU8o-12" value="Drift Detector" style="rounded=1;whiteSpace=wrap;html=1;fillColor=#ffe6cc;strokeColor=#d79b00;arcSize=12;strokeWidth=3;fontStyle=1;shadow=1;" vertex="1" parent="1">
          <mxGeometry x="520" y="715" width="120" height="60" as="geometry" />
        </mxCell>
        <mxCell id="0u2wPPO9z2ysjlSLfU8o-16" value="&lt;div&gt;Diagram&lt;/div&gt;&lt;div&gt;Tool&lt;br&gt;&lt;/div&gt;" style="rhombus;whiteSpace=wrap;html=1;strokeWidth=2;fontStyle=1;shadow=1;" vertex="1" parent="1">
          <mxGeometry x="710" y="380" width="80" height="80" as="geometry" />
        </mxCell>
        <mxCell id="0u2wPPO9z2ysjlSLfU8o-17" value="IaC" style="rhombus;whiteSpace=wrap;html=1;strokeWidth=2;fontStyle=1;shadow=1;" vertex="1" parent="1">
          <mxGeometry x="710" y="230" width="80" height="80" as="geometry" />
        </mxCell>
        <mxCell id="0u2wPPO9z2ysjlSLfU8o-18" value="&lt;div&gt;Cost&lt;/div&gt;&lt;div&gt;Analysis&lt;/div&gt;" style="rhombus;whiteSpace=wrap;html=1;strokeWidth=2;fontStyle=1;shadow=1;" vertex="1" parent="1">
          <mxGeometry x="710" y="545" width="80" height="80" as="geometry" />
        </mxCell>
        <mxCell id="0u2wPPO9z2ysjlSLfU8o-19" value="&lt;div&gt;Diff&lt;/div&gt;&lt;div&gt;Engine&lt;br&gt;&lt;/div&gt;" style="rhombus;whiteSpace=wrap;html=1;strokeWidth=2;fontStyle=1;shadow=1;" vertex="1" parent="1">
          <mxGeometry x="710" y="705" width="80" height="80" as="geometry" />
        </mxCell>
        <mxCell id="0u2wPPO9z2ysjlSLfU8o-20" value="Cloud Platform" style="html=1;verticalLabelPosition=bottom;align=center;labelBackgroundColor=#ffffff;verticalAlign=top;strokeWidth=4;strokeColor=#000000;shadow=1;dashed=0;shape=mxgraph.ios7.icons.cloud;fontStyle=1" vertex="1" parent="1">
          <mxGeometry x="850" y="180" width="210" height="130" as="geometry" />
        </mxCell>
        <mxCell id="0u2wPPO9z2ysjlSLfU8o-22" value="Rendered Platform Diagram" style="shape=image;html=1;verticalAlign=top;verticalLabelPosition=bottom;labelBackgroundColor=#ffffff;imageAspect=0;aspect=fixed;image=https://cdn4.iconfinder.com/data/icons/48-bubbles/48/18.Pictures-Day-128.png;fontStyle=1;shadow=1;" vertex="1" parent="1">
          <mxGeometry x="891" y="356" width="128" height="128" as="geometry" />
        </mxCell>
        <mxCell id="0u2wPPO9z2ysjlSLfU8o-23" value="Diff/Drift Detection Analysis" style="sketch=0;outlineConnect=0;fontColor=#232F3E;gradientColor=none;fillColor=#232F3D;strokeColor=none;dashed=0;verticalLabelPosition=bottom;verticalAlign=top;align=center;html=1;fontSize=12;fontStyle=1;aspect=fixed;pointerEvents=1;shape=mxgraph.aws4.source_code;shadow=1;" vertex="1" parent="1">
          <mxGeometry x="914.81" y="690" width="80.39" height="110" as="geometry" />
        </mxCell>
        <mxCell id="0u2wPPO9z2ysjlSLfU8o-24" value="Forecasted Cost Report" style="sketch=0;outlineConnect=0;fontColor=#232F3E;gradientColor=none;fillColor=#232F3D;strokeColor=none;dashed=0;verticalLabelPosition=bottom;verticalAlign=top;align=center;html=1;fontSize=12;fontStyle=1;aspect=fixed;pointerEvents=1;shape=mxgraph.aws4.document;shadow=1;" vertex="1" parent="1">
          <mxGeometry x="914.81" y="530" width="80.38" height="110" as="geometry" />
        </mxCell>
        <mxCell id="0u2wPPO9z2ysjlSLfU8o-30" value="1" style="ellipse;whiteSpace=wrap;html=1;aspect=fixed;fontStyle=1;strokeWidth=3;shadow=1;" vertex="1" parent="1">
          <mxGeometry x="50" y="130" width="30" height="30" as="geometry" />
        </mxCell>
        <mxCell id="0u2wPPO9z2ysjlSLfU8o-31" value="2" style="ellipse;whiteSpace=wrap;html=1;aspect=fixed;fontStyle=1;strokeWidth=3;shadow=1;" vertex="1" parent="1">
          <mxGeometry x="270" y="130" width="30" height="30" as="geometry" />
        </mxCell>
        <mxCell id="0u2wPPO9z2ysjlSLfU8o-32" value="3" style="ellipse;whiteSpace=wrap;html=1;aspect=fixed;fontStyle=1;strokeWidth=3;shadow=1;" vertex="1" parent="1">
          <mxGeometry x="620" y="130" width="30" height="30" as="geometry" />
        </mxCell>
        <mxCell id="0u2wPPO9z2ysjlSLfU8o-33" value="4" style="ellipse;whiteSpace=wrap;html=1;aspect=fixed;fontStyle=1;strokeWidth=3;shadow=1;" vertex="1" parent="1">
          <mxGeometry x="940" y="130" width="30" height="30" as="geometry" />
        </mxCell>
        <mxCell id="0u2wPPO9z2ysjlSLfU8o-36" value="" style="edgeStyle=none;orthogonalLoop=1;jettySize=auto;html=1;rounded=0;endArrow=none;endFill=0;dashed=1;strokeColor=#5e5c64;shadow=1;" edge="1" parent="1">
          <mxGeometry width="80" relative="1" as="geometry">
            <mxPoint x="160" y="770" as="sourcePoint" />
            <mxPoint x="160" y="120" as="targetPoint" />
            <Array as="points" />
          </mxGeometry>
        </mxCell>
        <mxCell id="0u2wPPO9z2ysjlSLfU8o-37" value="" style="edgeStyle=none;orthogonalLoop=1;jettySize=auto;html=1;rounded=0;endArrow=none;endFill=0;dashed=1;strokeColor=#5e5c64;shadow=1;" edge="1" parent="1">
          <mxGeometry width="80" relative="1" as="geometry">
            <mxPoint x="430" y="770" as="sourcePoint" />
            <mxPoint x="430" y="120" as="targetPoint" />
            <Array as="points" />
          </mxGeometry>
        </mxCell>
        <mxCell id="0u2wPPO9z2ysjlSLfU8o-38" value="" style="edgeStyle=none;orthogonalLoop=1;jettySize=auto;html=1;rounded=0;endArrow=none;endFill=0;dashed=1;strokeColor=#5e5c64;shadow=1;" edge="1" parent="1">
          <mxGeometry width="80" relative="1" as="geometry">
            <mxPoint x="830" y="770" as="sourcePoint" />
            <mxPoint x="830" y="120" as="targetPoint" />
            <Array as="points" />
          </mxGeometry>
        </mxCell>
        <mxCell id="0u2wPPO9z2ysjlSLfU8o-40" value="&lt;ul&gt;&lt;li&gt;KCL&lt;br&gt;&lt;/li&gt;&lt;li&gt;Helm Chart&lt;/li&gt;&lt;li&gt;Cuelang&lt;/li&gt;&lt;li&gt;Custom Script&lt;/li&gt;&lt;li&gt;etc...&lt;/li&gt;&lt;/ul&gt;" style="shape=note;whiteSpace=wrap;html=1;backgroundOutline=1;fontColor=#000000;darkOpacity=0.05;fillColor=#FFF9B2;strokeColor=none;fillStyle=solid;direction=west;gradientDirection=north;gradientColor=#FFF2A1;shadow=1;size=20;pointerEvents=1;verticalAlign=top;align=left;" vertex="1" parent="1">
          <mxGeometry x="217.5" y="610" width="135" height="105" as="geometry" />
        </mxCell>
      </root>
    </mxGraphModel>
  </diagram>
</mxfile>
